<svg width="24" height="24" viewBox="0 0 24 24" fill="none" xmlns="http://www.w3.org/2000/svg">
<path d="M5.51047 19H17.5047C18.2778 19 18.9974 18.8687 19.6632 18.6062C20.3291 18.3437 20.9121 17.9794 21.4122 17.5133C21.9123 17.0472 22.302 16.5029 22.5812 15.8805C22.8604 15.2581 23 14.5841 23 13.8584C23 13.1269 22.8543 12.4513 22.5628 11.8319C22.2713 11.2124 21.8647 10.674 21.3431 10.2168C20.8215 9.75959 20.2094 9.40414 19.5067 9.15045C18.8041 8.89676 18.0385 8.76992 17.2101 8.76992C16.6026 7.60177 15.7572 6.68142 14.674 6.00885C13.5909 5.33628 12.3652 5 10.9967 5C10.1007 5 9.25232 5.15782 8.45148 5.47345C7.65064 5.78909 6.93725 6.22861 6.31131 6.79204C5.68536 7.35546 5.17755 8.01181 4.78787 8.76107C4.39819 9.51033 4.16653 10.3186 4.09289 11.1858C3.48536 11.351 2.9484 11.6195 2.48202 11.9912C2.01562 12.3628 1.65202 12.8112 1.39121 13.3363C1.1304 13.8614 1 14.4366 1 15.0619C1 15.8348 1.18717 16.5162 1.56151 17.1062C1.93585 17.6962 2.46053 18.1593 3.13556 18.4956C3.8106 18.8319 4.60224 19 5.51047 19Z" fill="white"/>
</svg>
