<svg width="12" height="12" viewBox="0 0 12 12" fill="none" xmlns="http://www.w3.org/2000/svg">
<path d="M5.99999 1C5.86279 1 5.75021 1.04323 5.66226 1.1297C5.57431 1.21616 5.53034 1.32822 5.53034 1.46585V8.43778L5.58311 10.0154L5.87862 9.90943L3.98944 7.82902L2.78628 6.64321C2.74406 6.60086 2.69393 6.56909 2.63588 6.54791C2.57783 6.52673 2.51715 6.51615 2.45383 6.51615C2.32366 6.51615 2.21548 6.56025 2.12929 6.64847C2.0431 6.73672 2 6.84613 2 6.9767C2 7.10377 2.04925 7.21847 2.14776 7.32082L5.64644 10.8412C5.69921 10.8941 5.75549 10.9338 5.8153 10.9603C5.87511 10.9868 5.93667 11 5.99999 11C6.06684 11 6.13016 10.9868 6.18997 10.9603C6.24978 10.9338 6.3043 10.8941 6.35356 10.8412L9.8575 7.32082C9.9525 7.21847 10 7.10377 10 6.9767C10 6.84613 9.9569 6.73672 9.87069 6.64847C9.78452 6.56025 9.67634 6.51615 9.54614 6.51615C9.48285 6.51615 9.42217 6.52673 9.36409 6.54791C9.30606 6.56909 9.25593 6.60086 9.21371 6.64321L8.01052 7.82902L6.11609 9.90943L6.41688 10.0154L6.46965 8.43778V1.46585C6.46965 1.32822 6.42568 1.21616 6.33772 1.1297C6.24977 1.04323 6.1372 1 5.99999 1Z" fill="white" fill-opacity="0.8"/>
</svg>
