<svg width="48" height="48" viewBox="0 0 48 48" fill="none" xmlns="http://www.w3.org/2000/svg">
<path d="M39.6006 16.9268C43.938 16.9268 47.541 13.3237 47.541 8.96338C47.541 4.60303 43.938 1 39.6006 1C35.2173 1 31.6372 4.60303 31.6372 8.96338C31.6372 13.3237 35.2173 16.9268 39.6006 16.9268ZM1 35.1255C1 39.0498 1.34424 42.3086 3.68506 44.6494C6.02588 46.9902 9.33057 47.3574 13.2319 47.3574H31.0635C34.9878 47.3574 38.2925 46.9902 40.6333 44.6494C42.9741 42.3086 43.3184 39.0498 43.3184 35.1255V19.4971C42.3086 19.8413 41.207 20.0249 40.0596 19.979C39.8989 20.0249 39.7842 20.0249 39.6235 20.0479V35.7451C39.6235 38.1318 39.3252 40.5645 37.9253 41.9644C36.5483 43.3413 34.0698 43.6626 31.7061 43.6626H12.6123C10.2485 43.6626 7.77002 43.3413 6.37012 41.9644C4.99316 40.5645 4.69482 38.1318 4.69482 35.7451V16.9038C4.69482 14.4941 4.99316 12.0156 6.37012 10.6387C7.77002 9.23877 10.2715 8.94043 12.6812 8.94043H28.5161C28.5161 8.77979 28.5391 8.64209 28.562 8.50439C28.5161 7.35693 28.6997 6.25537 29.0439 5.24561H13.186C9.33057 5.24561 6.02588 5.61279 3.68506 7.95361C1.34424 10.2944 1 13.5762 1 17.4087V35.1255Z" fill="#007AFF"/>
</svg>
