<svg width="12" height="2" viewBox="0 0 12 2" fill="none" xmlns="http://www.w3.org/2000/svg">
<path d="M0.647272 2H11.3527C11.4691 2 11.5769 1.95531 11.6763 1.86592C11.7757 1.77653 11.8545 1.65549 11.9127 1.50279C11.9709 1.35009 12 1.18063 12 0.994413C12 0.815642 11.9709 0.649907 11.9127 0.497207C11.8545 0.344506 11.7757 0.223463 11.6763 0.134078C11.5769 0.0446928 11.4691 0 11.3527 0H0.647272C0.530909 0 0.424242 0.0446928 0.327272 0.134078C0.230303 0.223463 0.151515 0.344506 0.0909088 0.497207C0.0303029 0.649907 0 0.815642 0 0.994413C0 1.18063 0.0303029 1.35009 0.0909088 1.50279C0.151515 1.65549 0.230303 1.77653 0.327272 1.86592C0.424242 1.95531 0.530909 2 0.647272 2Z" fill="black"/>
</svg>
