<svg width="24" height="24" viewBox="0 0 24 24" fill="none" xmlns="http://www.w3.org/2000/svg">
<path d="M0.196496 12.0294C0.00677572 12.2974 -0.0455608 12.5343 0.039486 12.7401C0.124533 12.9461 0.343692 13.049 0.696963 13.049H2.05117C2.18856 14.2974 2.54019 15.464 3.10608 16.549C3.67197 17.634 4.40631 18.585 5.30912 19.402C6.21192 20.2189 7.23248 20.8562 8.3708 21.3137C9.5091 21.7712 10.7194 22 12.0017 22C13.4998 22 14.9014 21.6846 16.2066 21.0539C17.5117 20.4232 18.6255 19.5784 19.548 18.5196C19.7311 18.3105 19.8129 18.0882 19.7932 17.8529C19.7736 17.6177 19.6689 17.4314 19.4792 17.2941C19.2895 17.1569 19.0867 17.1078 18.8708 17.147C18.6549 17.1863 18.4685 17.2974 18.3115 17.4804C17.5526 18.3562 16.6285 19.0506 15.5393 19.5637C14.45 20.0768 13.2708 20.3333 12.0017 20.3333C10.9353 20.3333 9.92945 20.1503 8.98412 19.7842C8.03879 19.4183 7.1965 18.9036 6.45725 18.2402C5.718 17.5768 5.11122 16.8039 4.63692 15.9216C4.16262 15.0392 3.86332 14.0817 3.73903 13.049H5.20117C5.5479 13.049 5.76543 12.9477 5.85375 12.7451C5.94206 12.5425 5.89136 12.3072 5.70164 12.0392L3.50351 8.91176C3.3465 8.68953 3.16333 8.57679 2.95398 8.57352C2.74463 8.57025 2.55818 8.683 2.39463 8.91176L0.196496 12.0294ZM4.46519 5.48039C4.27547 5.68954 4.19043 5.91013 4.21006 6.14216C4.22968 6.37418 4.33762 6.55882 4.53388 6.69607C4.7236 6.83332 4.9264 6.88398 5.1423 6.84803C5.35819 6.81208 5.54463 6.70261 5.70164 6.5196C6.46706 5.64379 7.3944 4.94934 8.48366 4.43627C9.57291 3.9232 10.7456 3.66667 12.0017 3.66667C13.068 3.66667 14.0738 3.85131 15.0192 4.22058C15.9645 4.58986 16.8068 5.1062 17.5461 5.7696C18.2853 6.433 18.8904 7.20587 19.3615 8.08822C19.8325 8.97058 20.1334 9.92809 20.2642 10.9608H18.8022C18.4554 10.9608 18.2379 11.0621 18.1496 11.2647C18.0612 11.4673 18.1119 11.7026 18.3016 11.9706L20.4998 15.098C20.6568 15.3202 20.84 15.433 21.0493 15.4363C21.2587 15.4395 21.4451 15.3268 21.6086 15.098L23.797 11.9804C23.9932 11.7059 24.0472 11.4673 23.9589 11.2647C23.8706 11.0621 23.6498 10.9608 23.2965 10.9608H21.9521C21.8148 9.71241 21.4631 8.54574 20.8972 7.46077C20.3313 6.37581 19.597 5.42483 18.6941 4.60784C17.7914 3.79085 16.7692 3.15196 15.6276 2.69118C14.486 2.23039 13.2774 2 12.0017 2C10.5101 2 9.11169 2.31536 7.80655 2.94608C6.50141 3.5768 5.38763 4.42157 4.46519 5.48039Z" fill="black" fill-opacity="0.8"/>
</svg>
