<svg width="24" height="24" viewBox="0 0 24 24" fill="none" xmlns="http://www.w3.org/2000/svg">
<path d="M12 24C18.5683 24 24 18.5683 24 12C24 5.41974 18.5683 0 11.988 0C5.41974 0 0 5.41974 0 12C0 18.5683 5.4317 24 12 24ZM6.3649 12.012C6.3649 11.5334 6.6999 11.1984 7.17846 11.1984H11.2104V7.1665C11.2104 6.6999 11.5334 6.35294 11.988 6.35294C12.4666 6.35294 12.8016 6.68794 12.8016 7.1665V11.1984H16.8335C17.3001 11.1984 17.6351 11.5334 17.6351 12.012C17.6351 12.4546 17.2881 12.7896 16.8335 12.7896H12.8016V16.8215C12.8016 17.2881 12.4666 17.6231 11.988 17.6231C11.5334 17.6231 11.2104 17.2762 11.2104 16.8215V12.7896H7.17846C6.71186 12.7896 6.3649 12.4546 6.3649 12.012Z" fill="#F9950C"/>
</svg>
