<svg width="12" height="12" viewBox="0 0 12 12" fill="none" xmlns="http://www.w3.org/2000/svg">
<path d="M5.99999 11C6.1372 11 6.24977 10.9568 6.33772 10.8703C6.42568 10.7838 6.46965 10.6718 6.46965 10.5341V3.5622L6.41688 1.98465L6.11609 2.09052L8.01052 4.17098L9.21371 5.35679C9.25593 5.39915 9.30606 5.43091 9.36409 5.45208C9.42217 5.47326 9.48285 5.48384 9.54614 5.48384C9.67634 5.48384 9.78452 5.43973 9.87069 5.3515C9.9569 5.26327 10 5.15387 10 5.02329C10 4.89623 9.9525 4.78153 9.8575 4.67919L6.35356 1.15881C6.3043 1.10588 6.24978 1.06617 6.18997 1.0397C6.13016 1.01323 6.06684 1 5.99999 1C5.93667 1 5.87511 1.01323 5.8153 1.0397C5.75549 1.06617 5.69921 1.10588 5.64644 1.15881L2.14776 4.67919C2.04925 4.78153 2 4.89623 2 5.02329C2 5.15387 2.0431 5.26327 2.12929 5.3515C2.21548 5.43973 2.32366 5.48384 2.45383 5.48384C2.51715 5.48384 2.57783 5.47326 2.63588 5.45208C2.69393 5.43091 2.74406 5.39915 2.78628 5.35679L3.98944 4.17098L5.87862 2.09052L5.58311 1.98465L5.53034 3.5622V10.5341C5.53034 10.6718 5.57431 10.7838 5.66226 10.8703C5.75021 10.9568 5.86279 11 5.99999 11Z" fill="white" fill-opacity="0.8"/>
</svg>
